<?xml version="1.0" encoding="utf-8"?>
<!-- Generator: Adobe Illustrator 16.0.0, SVG Export Plug-In . SVG Version: 6.00 Build 0)  -->
<!DOCTYPE svg PUBLIC "-//W3C//DTD SVG 1.1//EN" "http://www.w3.org/Graphics/SVG/1.1/DTD/svg11.dtd">
<svg version="1.1" id="Calque_1" xmlns="http://www.w3.org/2000/svg" xmlns:xlink="http://www.w3.org/1999/xlink" x="0px" y="0px"
	 width="16px" height="16px" viewBox="0 0 16 16" enable-background="new 0 0 16 16" xml:space="preserve">
<path fill="#FF0000" d="M2,15.5V2c0-1.104,0.896-2,2-2h8c1.104,0,2,0.896,2,2v13.5c0,0.276-0.224,0.5-0.5,0.5
	c-0.084,0-0.166-0.021-0.24-0.061L8,13.068l-5.26,2.871c-0.243,0.132-0.546,0.043-0.679-0.199C2.021,15.666,2,15.584,2,15.5
	 M10.854,5.854c0.195-0.195,0.195-0.513,0-0.708s-0.512-0.195-0.707,0L7.5,7.793L6.354,6.646c-0.195-0.195-0.513-0.195-0.708,0
	s-0.195,0.513,0,0.708l1.5,1.5C7.341,9.049,7.658,9.05,7.853,8.855c0-0.001,0-0.001,0.001-0.002L10.854,5.854z"/>
</svg>
