<?xml version="1.0" encoding="utf-8"?>
<!-- Generator: Adobe Illustrator 16.0.0, SVG Export Plug-In . SVG Version: 6.00 Build 0)  -->
<!DOCTYPE svg PUBLIC "-//W3C//DTD SVG 1.1//EN" "http://www.w3.org/Graphics/SVG/1.1/DTD/svg11.dtd">
<svg version="1.1" id="Calque_1" xmlns="http://www.w3.org/2000/svg" xmlns:xlink="http://www.w3.org/1999/xlink" x="0px" y="0px"
	 width="16px" height="16px" viewBox="0 0 16 16" enable-background="new 0 0 16 16" xml:space="preserve">
<path fill="#FFFFFF" d="M1,2.828c0.885-0.37,2.154-0.769,3.388-0.893C5.718,1.801,6.846,1.998,7.5,2.687v9.747
	c-0.935-0.531-2.12-0.604-3.213-0.494C3.107,12.061,1.917,12.4,1,12.751V2.828z M8.5,2.687c0.654-0.689,1.782-0.886,3.111-0.752
	C12.846,2.059,14.115,2.458,15,2.828v9.923c-0.918-0.351-2.107-0.692-3.287-0.81c-1.094-0.111-2.277-0.039-3.213,0.492V2.687z
	 M8,1.783C7.015,0.936,5.587,0.81,4.287,0.94C2.773,1.093,1.245,1.612,0.293,2.045C0.115,2.126,0,2.304,0,2.5v11
	C0,13.776,0.224,14,0.5,14c0.071,0,0.142-0.016,0.207-0.045c0.882-0.4,2.303-0.881,3.68-1.02c1.409-0.143,2.59,0.086,3.223,0.877
	c0.173,0.215,0.488,0.25,0.703,0.076c0.028-0.022,0.054-0.049,0.077-0.076c0.633-0.791,1.814-1.02,3.221-0.877
	c1.379,0.139,2.801,0.619,3.682,1.02c0.252,0.114,0.548,0.003,0.662-0.248C15.984,13.643,16,13.571,16,13.5v-11
	c0-0.196-0.115-0.374-0.293-0.455c-0.952-0.433-2.48-0.952-3.994-1.105C10.413,0.809,8.984,0.936,8,1.783"/>
</svg>
