<?xml version="1.0" encoding="utf-8"?>
<!-- Generator: Adobe Illustrator 16.0.0, SVG Export Plug-In . SVG Version: 6.00 Build 0)  -->
<!DOCTYPE svg PUBLIC "-//W3C//DTD SVG 1.1//EN" "http://www.w3.org/Graphics/SVG/1.1/DTD/svg11.dtd">
<svg version="1.1" id="Calque_1" xmlns="http://www.w3.org/2000/svg" xmlns:xlink="http://www.w3.org/1999/xlink" x="0px" y="0px"
	 width="16px" height="16px" viewBox="0 0 16 16" enable-background="new 0 0 16 16" xml:space="preserve">
<path fill="#1D1D1B" d="M1.747,6.959C2.538,6.66,3.671,6.337,4.774,6.237c1.188-0.109,2.195,0.051,2.779,0.608v7.887
	c-0.835-0.43-1.894-0.488-2.87-0.4c-1.054,0.099-2.117,0.373-2.937,0.657V6.959z M8.446,6.845c0.585-0.558,1.592-0.717,2.779-0.608
	c1.104,0.1,2.236,0.423,3.027,0.723v8.03c-0.82-0.284-1.883-0.561-2.936-0.655c-0.979-0.09-2.035-0.031-2.871,0.398V6.845z M8,6.114
	C7.12,5.428,5.845,5.326,4.684,5.432C3.331,5.555,1.966,5.975,1.116,6.326c-0.159,0.065-0.262,0.21-0.262,0.368v8.902
	c0,0.224,0.2,0.404,0.447,0.404c0.063,0,0.127-0.013,0.185-0.036c0.788-0.324,2.057-0.713,3.288-0.825
	c1.258-0.115,2.313,0.069,2.878,0.71c0.155,0.174,0.436,0.202,0.629,0.062c0.024-0.019,0.048-0.04,0.068-0.062
	c0.565-0.641,1.621-0.825,2.877-0.71c1.232,0.112,2.502,0.501,3.289,0.825c0.225,0.092,0.488,0.002,0.592-0.201
	c0.025-0.052,0.039-0.109,0.039-0.167V6.694c0-0.158-0.102-0.303-0.262-0.368c-0.85-0.351-2.215-0.771-3.566-0.894
	C10.155,5.326,8.88,5.428,8,6.114"/>
<circle fill="#1D1D1B" cx="7.999" cy="3.042" r="2.354"/>
</svg>
