<?xml version="1.0" encoding="utf-8"?>
<!-- Generator: Adobe Illustrator 16.0.0, SVG Export Plug-In . SVG Version: 6.00 Build 0)  -->
<!DOCTYPE svg PUBLIC "-//W3C//DTD SVG 1.1//EN" "http://www.w3.org/Graphics/SVG/1.1/DTD/svg11.dtd">
<svg version="1.1" id="Calque_1" xmlns="http://www.w3.org/2000/svg" xmlns:xlink="http://www.w3.org/1999/xlink" x="0px" y="0px"
	 width="16px" height="16px" viewBox="0 0 16 16" enable-background="new 0 0 16 16" xml:space="preserve">
<path fill="#FFFFFF" d="M12.736,3.97c0.283-0.289,0.747-0.293,1.036-0.01c0.003,0.003,0.007,0.007,0.011,0.01
	c0.285,0.289,0.29,0.756,0.01,1.05L7.88,12.01c-0.272,0.3-0.736,0.321-1.035,0.049c-0.01-0.01-0.02-0.02-0.03-0.028L3.217,8.384
	c-0.289-0.294-0.289-0.766,0-1.06C3.5,7.035,3.964,7.03,4.253,7.313C4.257,7.317,4.261,7.32,4.264,7.324l3.052,3.093l5.4-6.425
	L12.736,3.97z"/>
</svg>
