<?xml version="1.0" encoding="utf-8"?>
<!-- Generator: Adobe Illustrator 16.0.0, SVG Export Plug-In . SVG Version: 6.00 Build 0)  -->
<!DOCTYPE svg PUBLIC "-//W3C//DTD SVG 1.0//EN" "http://www.w3.org/TR/2001/REC-SVG-20010904/DTD/svg10.dtd">
<svg version="1.0" id="Calque_1" xmlns="http://www.w3.org/2000/svg" xmlns:xlink="http://www.w3.org/1999/xlink" x="0px" y="0px"
	 width="16px" height="16px" viewBox="0 0 16 16" enable-background="new 0 0 16 16" xml:space="preserve">
<path fill="#00976C" d="M8,16c3.314,0,6-2,6-5.5c0-1.5-0.5-4-2.5-6c0.25,1.5-1.25,2-1.25,2C11,4,9,0.5,6,0c0.357,2,0.5,4-2,6
	c-1.25,1-2,2.729-2,4.5C2,14,4.686,16,8,16 M8,15c-1.657,0-3-1-3-2.75c0-0.75,0.25-2,1.25-3C6.125,10,7,10.5,7,10.5
	C6.625,9.25,7.5,7.25,9,7c-0.18,1-0.25,2,1,3c0.625,0.5,1,1.364,1,2.25C11,14,9.657,15,8,15"/>
</svg>
