<?xml version="1.0" encoding="utf-8"?>
<!-- Generator: Adobe Illustrator 16.0.0, SVG Export Plug-In . SVG Version: 6.00 Build 0)  -->
<!DOCTYPE svg PUBLIC "-//W3C//DTD SVG 1.0//EN" "http://www.w3.org/TR/2001/REC-SVG-20010904/DTD/svg10.dtd">
<svg version="1.0" id="Calque_1" xmlns="http://www.w3.org/2000/svg" xmlns:xlink="http://www.w3.org/1999/xlink" x="0px" y="0px"
	 width="64px" height="64px" viewBox="0 0 64 64" enable-background="new 0 0 64 64" xml:space="preserve">
<path fill="#00976C" stroke="#016947" stroke-miterlimit="10" d="M15.229,59.689c0,1.046-0.896,1.893-2,1.893H5.334
	c-1.104,0-2-0.847-2-1.893V12.476c0-1.045,0.896-1.893,2-1.893h7.894c1.104,0,2,0.848,2,1.893V59.689z"/>
<path fill="#00976C" stroke="#016947" stroke-miterlimit="10" d="M25.167,60.617c0,0.533-0.646,0.965-1.443,0.965h-5.697
	c-0.796,0-1.443-0.432-1.443-0.965V36.549c0-0.532,0.646-0.965,1.443-0.965h5.697c0.796,0,1.443,0.433,1.443,0.965V60.617z"/>
<path fill="#016947" stroke="#016947" stroke-miterlimit="10" d="M37.167,59.38c0,1.217-0.785,2.202-1.751,2.202h-6.914
	c-0.967,0-1.751-0.985-1.751-2.202V4.452c0-1.215,0.784-2.202,1.751-2.202h6.914c0.966,0,1.751,0.987,1.751,2.202V59.38z"/>
<path fill="#00976C" stroke="#016947" stroke-miterlimit="10" d="M59.81,57.713c0.251,1.19-0.313,2.316-1.259,2.516l-6.766,1.428
	c-0.946,0.2-1.916-0.603-2.167-1.793L38.276,6.119c-0.251-1.188,0.312-2.316,1.259-2.516L46.3,2.175
	c0.945-0.199,1.918,0.604,2.168,1.793L59.81,57.713z"/>
</svg>
