<?xml version="1.0" encoding="utf-8"?>
<!-- Generator: Adobe Illustrator 16.0.0, SVG Export Plug-In . SVG Version: 6.00 Build 0)  -->
<!DOCTYPE svg PUBLIC "-//W3C//DTD SVG 1.1//EN" "http://www.w3.org/Graphics/SVG/1.1/DTD/svg11.dtd">
<svg version="1.1" id="Calque_1" xmlns="http://www.w3.org/2000/svg" xmlns:xlink="http://www.w3.org/1999/xlink" x="0px" y="0px"
	 width="841.89px" height="595.28px" viewBox="0 0 841.89 595.28" enable-background="new 0 0 841.89 595.28" xml:space="preserve">
<path fill="#00422F" d="M527.374,311.861c2.434-25.442-10.264-4.074-14.393,26.859c-4.019,30.166-9.759,51.676-32.511,52.637
	c-19.287,0-34.355-5.05-40.177-23.439c-4.912-15.509,0.542-50.461,6.312-66.247c-4.709,7.634-16.181,8.146-20.166,6.462
	c-11.569-4.896-5.581-25.66,8.2-26.894c6.2-0.556,12.104,7.041,14.021,15.107c21.19-15.97,28.655-42.423,12.831-54.887
	c-10.872-8.56-29.361-4.296-46.117,12.247c-7.191,7.098-49.167,68.203-76.397,58.218c-8.721-3.202-17.899-10.988-21.76-21.355
	c-11.524-30.947,0.538-69.268,6.844-87.087l-0.901,16.776l8.219-2.901c-10.528,28.069-14.382,53.441-7.191,72.915
	c2.833,7.664,9.235,12.803,15.669,15.163c22.352,8.196,39.378-12.412,54.97-36.78c24.704-38.611,51.367-54.82,74.743-36.458
	c5.113,4.013,15.754,16.776,10.619,33.985c-5.12,17.135-16.912,25.251-31.375,33.479c-0.2,3.545-9.763,25.909-4.839,56.643
	c3.859,24.088,17.899,30.797,35.876,29.684c24.314-1.51,27.698-39.082,31.079-55.066c9.194-43.477,21.257-38.534,19.591-16.634
	l-1.362-4.965L527.374,311.861z M427.085,289.976c-7.194,10.163,5.396,23.471,18.749,8.79
	C443.696,286.838,433.642,280.709,427.085,289.976z"/>
</svg>
