<?xml version="1.0" encoding="utf-8"?>
<!-- Generator: Adobe Illustrator 16.0.0, SVG Export Plug-In . SVG Version: 6.00 Build 0)  -->
<!DOCTYPE svg PUBLIC "-//W3C//DTD SVG 1.0//EN" "http://www.w3.org/TR/2001/REC-SVG-20010904/DTD/svg10.dtd">
<svg version="1.0" id="Calque_1" xmlns="http://www.w3.org/2000/svg" xmlns:xlink="http://www.w3.org/1999/xlink" x="0px" y="0px"
	 width="16px" height="16px" viewBox="0 0 16 16" enable-background="new 0 0 16 16" xml:space="preserve">
<path fill="#00976C" d="M11.742,10.344c2.121-2.896,1.494-6.963-1.4-9.085C7.446-0.863,3.378-0.236,1.256,2.66
	c-2.122,2.896-1.495,6.963,1.4,9.084c2.289,1.678,5.401,1.677,7.689-0.002h-0.002c0.029,0.04,0.063,0.078,0.098,0.115l3.851,3.85
	c0.391,0.391,1.024,0.391,1.415,0s0.391-1.023,0-1.414l-3.85-3.85C11.821,10.406,11.783,10.373,11.742,10.344L11.742,10.344z
	 M12,6.5C12,9.537,9.537,12,6.5,12C3.462,12,1,9.537,1,6.5C1,3.462,3.462,1,6.5,1C9.537,1,12,3.462,12,6.5"/>
</svg>
