<?xml version="1.0" encoding="utf-8"?>
<!-- Generator: Adobe Illustrator 16.0.0, SVG Export Plug-In . SVG Version: 6.00 Build 0)  -->
<!DOCTYPE svg PUBLIC "-//W3C//DTD SVG 1.0//EN" "http://www.w3.org/TR/2001/REC-SVG-20010904/DTD/svg10.dtd">
<svg version="1.0" id="Calque_1" xmlns="http://www.w3.org/2000/svg" xmlns:xlink="http://www.w3.org/1999/xlink" x="0px" y="0px"
	 width="16px" height="16px" viewBox="0 0 16 16" enable-background="new 0 0 16 16" xml:space="preserve">
<path fill="#00976C" d="M6.5,14.5v-3.505C6.5,10.75,6.75,10.5,7,10.5h2c0.25,0,0.5,0.25,0.5,0.5v3.5c0,0.276,0.224,0.5,0.5,0.5h4
	c0.276,0,0.5-0.224,0.5-0.5v-7c0-0.133-0.053-0.26-0.146-0.354L13,5.793V2.5C13,2.224,12.776,2,12.5,2h-1C11.224,2,11,2.224,11,2.5
	v1.293L8.354,1.146C8.159,0.951,7.842,0.95,7.647,1.145c0,0,0,0-0.001,0.001l-6,6C1.552,7.24,1.5,7.367,1.5,7.5v7
	C1.5,14.776,1.724,15,2,15h4C6.276,15,6.5,14.776,6.5,14.5"/>
</svg>
