<?xml version="1.0" encoding="utf-8"?>
<!-- Generator: Adobe Illustrator 16.0.0, SVG Export Plug-In . SVG Version: 6.00 Build 0)  -->
<!DOCTYPE svg PUBLIC "-//W3C//DTD SVG 1.0//EN" "http://www.w3.org/TR/2001/REC-SVG-20010904/DTD/svg10.dtd">
<svg version="1.0" id="Calque_1" xmlns="http://www.w3.org/2000/svg" xmlns:xlink="http://www.w3.org/1999/xlink" x="0px" y="0px"
	 width="120px" height="65.25px" viewBox="0 0 120 65.25" enable-background="new 0 0 120 65.25" xml:space="preserve">
<polygon fill="#006946" points="2.304,42.299 20.957,8.408 23.454,60.769 21.418,59.518 19.036,62.673 19.262,14.056 1.569,46.422 
	"/>
<path fill="#006946" d="M39.906,40.628c0,0,0.396,1.498-1.102,2.741c-0.762,0.632-3.517,0.634-2.661-2.231
	c1.418-4.745,0.346-7.173-3.75-4.998c1.385-0.792,4.293-3.446,2.233-5.959c-2.014-2.455-5.452-0.649-6.496,2.174l-0.877-0.466
	l0.369,11.876l1.242-1.03l-0.466-8.522c0.988-2.847,3.488-3.48,4.788-2.62c1.666,1.102-0.766,3.467-2.881,5.549
	c-1.372,1.35-0.762,2.331,0.085,1.738c3.558-2.881,5.331-2.715,4.943-0.283c-0.735,4.603,1.167,6.278,2.711,6.015
	C40.696,44.159,40.612,41.138,39.906,40.628z"/>
<path fill="#006946" d="M61.875,39.501c-0.108-3.185-0.032-6.298,2.458-10.28l-2.206,2.131c-1.347,2.56-2.008,5.527-1.691,8.289
	c-3.361,1.864-6.354,1.497-6.18-1.738c0.266-4.95,4.348-6.185,7.449-7.06c0,0-1.65-0.404-4.827,0.806
	c-2.965,1.13-5.791,4.095-4.914,8.048c1.101,4.972,7.426,2.514,8.612,0.876c0.705,2.486,3.203,2.724,4.136,2.47
	C65.136,42.96,62.017,43.623,61.875,39.501z"/>
<path fill="#00422F" d="M58.748,50.88c-6.362,0-11.331-1.326-13.251-6.155c-1.62-4.072,0.178-13.25,2.082-17.396
	c-1.553,2.005-5.337,2.14-6.65,1.697c-3.816-1.286-1.842-6.738,2.704-7.062c2.045-0.146,3.99,1.849,4.624,3.967
	c6.989-4.194,9.452-11.14,4.232-14.413c-3.586-2.248-9.684-1.128-15.211,3.216c-2.373,1.864-16.216,17.909-25.198,15.287
	c-2.876-0.84-5.904-2.886-7.177-5.607C1.102,16.288,5.08,6.225,7.159,1.546L6.862,5.951l2.711-0.762
	C6.101,12.56,4.829,19.222,7.202,24.336c0.934,2.012,3.046,3.362,5.168,3.981c7.372,2.152,12.987-3.259,18.13-9.658
	C38.648,8.521,47.443,4.265,55.153,9.086c1.685,1.054,5.196,4.405,3.501,8.924c-1.688,4.5-5.577,6.631-10.347,8.791
	c-0.067,0.931-3.221,6.804-1.597,14.873c1.272,6.325,5.903,8.087,11.833,7.795c8.019-0.395,9.136-10.261,10.25-14.459
	c3.122-11.748,6.861-10.59,6.1-5.14c1.667-5.281,5.111-5.043,6.073-4.94c7.397,0.789-1.956,12.756,0.479,15.956
	c1.609,2.116,5.591-0.319,6.904-5.297c0.084-4.872,2.646-5.926,4.851-6.164c2.563-0.275,4.954,0.662,3.642,4.109
	c-1.249,3.283-3.933,6.107-7.433,3.134c-0.425,3.051,3.347,4.905,5.082,4.695c3.305-0.396,7.299-0.753,11.002-11.105
	c3.37-9.425,8.556-10.948,10.571-9.229c2.89,2.465,2.55,8.205,1.088,11.827l-0.146-3.198l-1.505,0.466
	c1.271-1.525,1.355-5.21-0.551-7.011c-1.385-1.309-5.69-0.502-9.136,8.845c-4.399,11.932-8.272,10.676-11.746,10.676
	c-2.526,0-5.593-1.157-5.168-5.479c-0.421,1.338-1.864,5.313-4.575,5.479c-1.051,0.065-5.099-0.101-4.235-4.882
	c0.678-3.757,3.282-11.695-0.704-10.54c-4.084,1.184-7.769,15.415-7.769,15.422h-0.551c0.027-0.559,3.166-12.473,3.009-15.08
	c-0.164-2.693-3.242,1.379-4.604,9.503C68.146,44.979,66.253,50.626,58.748,50.88z M89.388,34.868
	c-0.106,1.165,2.155,2.324,3.54,0.898c2.476-2.55,2.051-5.219,0.442-5.219C91.957,30.547,89.737,31.029,89.388,34.868z
	 M41.14,24.258c-2.373,2.668,1.778,6.163,6.184,2.308C46.619,23.434,43.303,21.825,41.14,24.258z"/>
</svg>
