<?xml version="1.0" encoding="utf-8"?>
<!-- Generator: Adobe Illustrator 16.0.0, SVG Export Plug-In . SVG Version: 6.00 Build 0)  -->
<!DOCTYPE svg PUBLIC "-//W3C//DTD SVG 1.1//EN" "http://www.w3.org/Graphics/SVG/1.1/DTD/svg11.dtd">
<svg version="1.1" id="Calque_1" xmlns="http://www.w3.org/2000/svg" xmlns:xlink="http://www.w3.org/1999/xlink" x="0px" y="0px"
	 width="459.89px" height="395.875px" viewBox="191.604 99.482 459.89 395.875"
	 enable-background="new 191.604 99.482 459.89 395.875" xml:space="preserve">
<path fill="#00422F" d="M644.536,327.849c5.128-53.609-21.626-8.585-30.326,56.596c-8.47,63.563-20.565,108.888-68.507,110.912
	c-40.64,0-72.391-10.641-84.659-49.39c-10.351-32.677,1.145-106.327,13.302-139.589c-9.923,16.086-34.097,17.164-42.492,13.614
	c-24.377-10.315-11.759-54.067,17.276-56.667c13.066-1.172,25.508,14.835,29.545,31.831c44.648-33.65,60.382-89.39,27.039-115.652
	c-22.911-18.037-61.868-9.052-97.176,25.806c-15.153,14.956-103.601,143.713-160.979,122.671
	c-18.375-6.745-37.714-23.151-45.851-44.997c-24.281-65.208,1.134-145.956,14.421-183.502l-1.897,35.349l17.318-6.112
	c-22.185,59.145-30.304,112.606-15.153,153.641c5.972,16.149,19.46,26.979,33.019,31.95c47.098,17.269,82.974-26.153,115.828-77.5
	c52.055-81.358,108.238-115.512,157.492-76.821c10.774,8.456,33.195,35.35,22.376,71.611
	c-10.787,36.105-35.637,53.207-66.111,70.545c-0.42,7.47-20.573,54.592-10.198,119.353c8.132,50.756,37.719,64.893,75.597,62.547
	c51.234-3.182,58.362-82.351,65.485-116.031c19.376-91.61,44.793-81.195,41.282-35.048l-2.868-10.463L644.536,327.849z
	 M433.215,281.735c-15.161,21.415,11.371,49.456,39.504,18.522C468.217,275.123,447.031,262.208,433.215,281.735z"/>
</svg>
