<?xml version="1.0" encoding="utf-8"?>
<!-- Generator: Adobe Illustrator 16.0.0, SVG Export Plug-In . SVG Version: 6.00 Build 0)  -->
<!DOCTYPE svg PUBLIC "-//W3C//DTD SVG 1.0//EN" "http://www.w3.org/TR/2001/REC-SVG-20010904/DTD/svg10.dtd">
<svg version="1.0" id="Calque_1" xmlns="http://www.w3.org/2000/svg" xmlns:xlink="http://www.w3.org/1999/xlink" x="0px" y="0px"
	 width="64px" height="64px" viewBox="0 0 64 64" enable-background="new 0 0 64 64" xml:space="preserve">
<path fill="#00422F" d="M59.853,36.393c0.641-7.582-2.701-1.215-3.788,8.004c-1.058,8.987-2.568,15.397-8.557,15.684
	c-5.076,0-9.042-1.505-10.574-6.983c-1.293-4.621,0.143-15.037,1.661-19.739c-1.239,2.273-4.259,2.426-5.308,1.924
	c-3.045-1.458-1.469-7.646,2.158-8.014c1.632-0.166,3.186,2.098,3.69,4.502c5.577-4.759,7.542-12.641,3.377-16.355
	c-2.861-2.551-7.728-1.28-12.138,3.649c-1.893,2.115-12.94,20.322-20.107,17.347c-2.295-0.954-4.711-3.273-5.727-6.363
	c-3.033-9.221,0.142-20.64,1.801-25.95L6.104,9.097l2.163-0.864c-2.771,8.364-3.785,15.924-1.893,21.727
	c0.746,2.284,2.431,3.815,4.124,4.518c5.883,2.441,10.364-3.698,14.468-10.959c6.502-11.505,13.52-16.335,19.672-10.864
	c1.346,1.196,4.146,4.999,2.795,10.127c-1.348,5.106-4.451,7.524-8.258,9.976c-0.053,1.057-2.569,7.721-1.273,16.879
	c1.016,7.178,4.711,9.177,9.442,8.845c6.399-0.45,7.29-11.646,8.18-16.408c2.42-12.955,5.595-11.482,5.156-4.957l-0.358-1.479
	L59.853,36.393z M33.457,29.871c-1.894,3.027,1.42,6.993,4.935,2.619C37.829,28.936,35.183,27.11,33.457,29.871z"/>
</svg>
