<?xml version="1.0" encoding="utf-8"?>
<!-- Generator: Adobe Illustrator 16.0.0, SVG Export Plug-In . SVG Version: 6.00 Build 0)  -->
<!DOCTYPE svg PUBLIC "-//W3C//DTD SVG 1.1//EN" "http://www.w3.org/Graphics/SVG/1.1/DTD/svg11.dtd">
<svg version="1.1" id="Calque_1" xmlns="http://www.w3.org/2000/svg" xmlns:xlink="http://www.w3.org/1999/xlink" x="0px" y="0px"
	 width="459.89px" height="296.217px" viewBox="191.604 199.14 459.89 296.217"
	 enable-background="new 191.604 199.14 459.89 296.217" xml:space="preserve">
<path fill="#1D1D1B" d="M806.496,470.479c7.531-78.737-31.764-12.609-44.542,83.125c-12.439,93.359-30.205,159.929-100.619,162.902
	c-59.689,0-106.324-15.629-124.344-72.541c-15.202-47.994,1.682-156.168,19.537-205.021c-14.574,23.627-50.079,25.21-62.41,19.996
	c-35.804-15.15-17.271-79.411,25.375-83.229c19.191-1.721,37.464,21.789,43.394,46.752c65.577-49.424,88.687-131.291,39.714-169.864
	c-33.65-26.492-90.869-13.296-142.728,37.902c-22.256,21.966-152.163,211.079-236.437,180.173
	c-26.989-9.907-55.393-34.004-67.343-66.09c-35.663-95.774,1.666-214.372,21.181-269.519l-2.787,51.918l25.436-8.978
	c-32.583,86.869-44.509,165.39-22.256,225.66c8.771,23.72,28.583,39.625,48.496,46.927
	c69.174,25.363,121.868-38.413,170.122-113.828C472.74,217.27,555.258,167.105,627.6,223.933
	c15.825,12.419,48.756,51.919,32.865,105.178c-15.844,53.029-52.342,78.148-97.102,103.614
	c-0.616,10.971-30.217,80.182-14.979,175.299c11.943,74.548,55.399,95.311,111.033,91.866
	c75.25-4.674,85.719-120.953,96.182-170.421c28.458-134.554,65.789-119.256,60.633-51.477l-4.213-15.368L806.496,470.479z
	 M496.119,402.75c-22.268,31.453,16.701,72.638,58.021,27.204C547.528,393.038,516.41,374.07,496.119,402.75z"/>
</svg>
