<?xml version="1.0" encoding="utf-8"?>
<!-- Generator: Adobe Illustrator 16.0.0, SVG Export Plug-In . SVG Version: 6.00 Build 0)  -->
<!DOCTYPE svg PUBLIC "-//W3C//DTD SVG 1.0//EN" "http://www.w3.org/TR/2001/REC-SVG-20010904/DTD/svg10.dtd">
<svg version="1.0" id="Calque_1" xmlns="http://www.w3.org/2000/svg" xmlns:xlink="http://www.w3.org/1999/xlink" x="0px" y="0px"
	 width="64px" height="64px" viewBox="0 0 64 64" enable-background="new 0 0 64 64" xml:space="preserve">
<g id="Calque_1_1_">
	<polygon fill="#056A47" points="7.979,41.908 22.691,12.863 24.66,57.736 23.056,56.666 21.176,59.371 21.354,17.703 7.397,45.441 
			"/>
	<path fill="#01422F" d="M60.377,36.211c0.653-7.415-2.752-1.189-3.855,7.826c-1.081,8.785-2.62,15.055-8.718,15.334
		c-5.175,0-9.217-1.469-10.776-6.828c-1.317-4.52,0.146-14.705,1.69-19.301c-1.261,2.223-4.337,2.371-5.406,1.879
		c-3.102-1.424-1.497-7.475,2.199-7.834c1.662-0.162,3.245,2.051,3.76,4.402c5.683-4.653,7.684-12.362,3.441-15.992
		c-2.919-2.493-7.875-1.253-12.367,3.568c-1.929,2.068-13.183,19.869-20.486,16.959c-2.338-0.928-4.799-3.199-5.834-6.219
		C0.933,20.989,4.169,9.823,5.859,4.63L5.618,9.518l2.204-0.844c-2.824,8.179-3.857,15.571-1.929,21.246
		c0.761,2.232,2.477,3.727,4.204,4.417c5.993,2.389,10.559-3.617,14.738-10.715c6.625-11.25,13.774-15.973,20.044-10.625
		c1.37,1.171,4.223,4.89,2.845,9.904c-1.37,4.991-4.533,7.356-8.41,9.754c-0.055,1.035-2.62,7.547-1.301,16.504
		c1.033,7.02,4.801,8.973,9.62,8.648c6.523-0.441,7.428-11.385,8.333-16.045c2.466-12.667,5.701-11.227,5.257-4.848l-0.369-1.445
		L60.377,36.211z M33.483,29.833c-1.928,2.961,1.446,6.837,5.03,2.561C37.939,28.92,35.242,27.133,33.483,29.833z"/>
</g>
</svg>
